# xmcd
#
# Track frame offsets:
#  150
#  2716
#  20820
#  35644
#  52793
#  69992
#  88241
#  111640
#  128164
#  140963
#  161212
#  182286
#  186810
#
# Disc length: 2786 seconds
#
# Revision: 1
# Processed by: cddbd v1.5.2PL0 Copyright (c) Steve Scherf et al.
# Submitted via: Collectorz.com_Music_Collector 6.11
#
DISCID=b90ae00d
DTITLE=Eric Clapton - Turn Up Down
DYEAR=1980
DGENRE=Blues
TTITLE0=Blues Instrumental
TTITLE1=There Ain't No Money
TTITLE2=Games Up
TTITLE3=Rita Mae
TTITLE4=Freedom
TTITLE5=Evangelina
TTITLE6=Home Lovin'
TTITLE7=Hold Me Lord
TTITLE8=Something Special
TTITLE9=I'd Love To Say I Love You
TTITLE10=Catch Me If You Can
TTITLE11=Thunder And Lightning
TTITLE12=Oh How I Miss My Baby's Love
EXTD=
EXTT0=
EXTT1=
EXTT2=
EXTT3=
EXTT4=
EXTT5=
EXTT6=
EXTT7=
EXTT8=
EXTT9=
EXTT10=
EXTT11=
EXTT12=
PLAYORDER=
